# xmcd
#
# Track frame offsets: 
#        150
#        10769
#        28959
#        49279
#        70908
#        89589
#        100683
#        117657
#        133902
#        150805
#        167955
#        181688
#
# Disc length: 2754 seconds
#
# Revision: 1
# Processed by: cddbd v1.5.2PL0 Copyright (c) Steve Scherf et al.
# Submitted via: ExactAudioCopy v0.95b3
#
DISCID=9e0ac00c
DTITLE=Sonic Sum - Films
DYEAR=2008
DGENRE=Hip Hop
TTITLE0=Oscillator
TTITLE1=Moth
TTITLE2=Choking Victim
TTITLE3=Films
TTITLE4=Marathoner
TTITLE5=Negatives
TTITLE6=Novelty Model A
TTITLE7=Rocket
TTITLE8=Chopper 1 Slow
TTITLE9=Medicine Man Motto
TTITLE10=Circus Breaker
TTITLE11=Ordinary Mower
EXTD=YEAR: 2003
EXTT0=
EXTT1=
EXTT2=
EXTT3=
EXTT4=
EXTT5=
EXTT6=
EXTT7=
EXTT8=
EXTT9=
EXTT10=
EXTT11=
PLAYORDER=
